<svg id="Layer_1" data-name="Layer 1" xmlns="http://www.w3.org/2000/svg" viewBox="0 0 163.46 36.51"><defs><style>.cls-1{fill:#231f20;fill-rule:evenodd;}</style></defs><polygon class="cls-1" points="153.7 6.69 154.8 6.69 154.8 10 156.16 10 156.16 6.69 157.26 6.69 157.26 5.53 153.7 5.53 153.7 6.69"/><polygon class="cls-1" points="162.01 5.53 160.86 7.97 160.78 7.97 159.64 5.53 158.19 5.53 158.19 10 159.49 10 159.49 7.91 159.55 7.91 160.52 10 161.12 10 162.09 7.91 162.15 7.91 162.15 10 163.46 10 163.46 5.53 162.01 5.53"/><path class="cls-1" d="M39.64,18.25a8.16,8.16,0,1,1-15.09,0H39.64a8.16,8.16,0,0,0-15.09,0H19.44V44.66h5.11a8.16,8.16,0,0,0,15.09,0H24.55a8.16,8.16,0,1,1,15.09,0h5.12V18.25Z" transform="translate(-19.44 -13.2)"/><polygon class="cls-1" points="62.86 15.38 52.7 15.38 52.7 5.52 46.95 5.52 46.95 31 52.7 31 52.7 20.91 62.86 20.91 62.86 31 68.65 31 68.65 5.52 62.86 5.52 62.86 15.38"/><path class="cls-1" d="M104.55,18.24C96.76,18.24,91,24,91,31.46s5.71,13.21,13.54,13.21,13.54-5.75,13.54-13.21S112.34,18.24,104.55,18.24Zm0,20.9A7.37,7.37,0,0,1,97,31.46a7.55,7.55,0,1,1,15.1,0A7.36,7.36,0,0,1,104.55,39.14Z" transform="translate(-19.44 -13.2)"/><polygon class="cls-1" points="148.14 10.43 148.14 5.52 131.86 5.52 131.86 31 137.62 31 137.62 21.2 146.53 21.2 146.53 16.29 137.62 16.29 137.62 10.43 148.14 10.43"/><path class="cls-1" d="M134.31,18.24c-7.79,0-13.54,5.72-13.54,13.22s5.72,13.21,13.54,13.21,13.54-5.75,13.54-13.21S142.1,18.24,134.31,18.24Zm0,20.9a7.37,7.37,0,0,1-7.57-7.68,7.56,7.56,0,1,1,15.11,0A7.37,7.37,0,0,1,134.31,39.14Z" transform="translate(-19.44 -13.2)"/></svg>